<?xml version="1.0" standalone="no"?>
<!DOCTYPE svg PUBLIC "-//W3C//DTD SVG 20010904//EN"
 "http://www.w3.org/TR/2001/REC-SVG-20010904/DTD/svg10.dtd">
<svg version="1.0" xmlns="http://www.w3.org/2000/svg"
 width="100.000000pt" height="100.000000pt" viewBox="0 0 100.000000 100.000000"
 preserveAspectRatio="xMidYMid meet">

<g transform="translate(0.000000,100.000000) scale(0.100000,-0.100000)"
fill="#000000" stroke="none">
<path d="M373 985 c-133 -36 -259 -138 -318 -259 -97 -197 -61 -422 94 -577
198 -198 504 -198 702 0 196 196 199 497 7 697 -125 130 -315 185 -485 139z
m299 -112 c88 -41 160 -113 201 -201 30 -62 32 -75 32 -172 0 -97 -2 -110 -31
-170 -46 -95 -101 -153 -192 -197 -73 -37 -80 -38 -182 -38 -102 0 -109 1
-182 38 -91 44 -146 102 -192 197 -29 60 -31 73 -31 170 0 94 3 111 28 164 51
110 118 174 234 222 50 21 70 24 153 22 82 -3 104 -8 162 -35z"/>
</g>
</svg>
